# xmcd CD database file
#
# Track frame offsets:
#	150
#	16550
#	49184
#	69723
#	93782
#	109408
#	127105
#	140465
#	156600
#	184756
#	208378
#	230131
#	259282
#	272673
#	281169
#
# Disc length: 3978 seconds
#
# Revision: 0
# Processed by: cddbd v1.5.2PL0 Copyright (c) Steve Scherf et al.
# Submitted via: CDex 1.70beta2
#
DISCID=ee0f880f
DTITLE=Kate Davis - LIVE AT JIMMY MAK'S
DYEAR=2012
DGENRE=Jazz
TTITLE0=I'll Take Romance
TTITLE1=Goodbye
TTITLE2=Blues In The Night
TTITLE3=Big Stuff
TTITLE4=It's You Or No One
TTITLE5=Lonely Town
TTITLE6=These Foolish Things
TTITLE7=If You Never Fall In Love With Me (Del Sasser)
TTITLE8=Isn't It A Pity
TTITLE9=Close Your Eyes
TTITLE10=A Night In Tunesia
TTITLE11=Leaving For Paris
TTITLE12=Whisper Not
TTITLE13=I'll Take Romance (Reprise)
TTITLE14=Devil May Care (Bonus Track)
EXTD=YEAR: 2012
EXTT0=
EXTT1=
EXTT2=
EXTT3=
EXTT4=
EXTT5=
EXTT6=
EXTT7=
EXTT8=
EXTT9=
EXTT10=
EXTT11=
EXTT12=
EXTT13=
EXTT14=
PLAYORDER=
